<?xml version="1.0" encoding="UTF-8" standalone="no"?>
<svg
   xmlns:dc="http://purl.org/dc/elements/1.1/"
   xmlns:cc="http://creativecommons.org/ns#"
   xmlns:rdf="http://www.w3.org/1999/02/22-rdf-syntax-ns#"
   xmlns:svg="http://www.w3.org/2000/svg"
   xmlns="http://www.w3.org/2000/svg"
   xmlns:sodipodi="http://sodipodi.sourceforge.net/DTD/sodipodi-0.dtd"
   xmlns:inkscape="http://www.inkscape.org/namespaces/inkscape"
   version="1.1"
   width="76"
   height="76"
   viewBox="0 0 76.00 76.00"
   enable-background="new 0 0 76.00 76.00"
   xml:space="preserve"
   id="svg2"
   inkscape:version="0.48.5 r10040"
   sodipodi:docname="device_information.svg"><metadata
   id="metadata10"><rdf:RDF><cc:Work
       rdf:about=""><dc:format>image/svg+xml</dc:format><dc:type
         rdf:resource="http://purl.org/dc/dcmitype/StillImage" /></cc:Work></rdf:RDF></metadata><defs
   id="defs8" /><sodipodi:namedview
   pagecolor="#ffffff"
   bordercolor="#666666"
   borderopacity="1"
   objecttolerance="10"
   gridtolerance="10"
   guidetolerance="10"
   inkscape:pageopacity="0"
   inkscape:pageshadow="2"
   inkscape:window-width="1287"
   inkscape:window-height="683"
   id="namedview6"
   showgrid="false"
   inkscape:zoom="3.1052632"
   inkscape:cx="38"
   inkscape:cy="38"
   inkscape:window-x="0"
   inkscape:window-y="0"
   inkscape:window-maximized="0"
   inkscape:current-layer="svg2" />
	<path
   d="M 46.847751,2.0000003 C 61.843612,2.0000003 74,14.156388 74,29.152249 c 0,14.995862 -12.156388,27.15225 -27.152249,27.15225 -5.135903,0 -9.93881,-1.426036 -14.11917,-3.817389 L 13.12444,72.091468 c -2.544927,2.544709 -6.6709823,2.544709 -9.2159082,0 -2.544709,-2.544926 -2.544709,-6.670981 0,-9.215908 L 23.599126,43.186704 c -2.477589,-4.095645 -3.903625,-8.898552 -3.903625,-14.034455 0,-14.995861 12.156388,-27.1522487 27.15225,-27.1522487 z m 0,8.6887197 c -10.197082,0 -18.46353,8.266448 -18.46353,18.463529 0,10.197082 8.266448,18.46353 18.46353,18.46353 10.197081,0 18.463529,-8.266448 18.463529,-18.46353 0,-10.197081 -8.266448,-18.463529 -18.463529,-18.463529 z"
   id="path4"
   inkscape:connector-curvature="0"
   style="fill:#000000;fill-opacity:1;stroke-width:0.2;stroke-linejoin:round" />
</svg>