<?xml version="1.0" encoding="UTF-8" standalone="no"?>
<svg
   xmlns:dc="http://purl.org/dc/elements/1.1/"
   xmlns:cc="http://creativecommons.org/ns#"
   xmlns:rdf="http://www.w3.org/1999/02/22-rdf-syntax-ns#"
   xmlns:svg="http://www.w3.org/2000/svg"
   xmlns="http://www.w3.org/2000/svg"
   xmlns:sodipodi="http://sodipodi.sourceforge.net/DTD/sodipodi-0.dtd"
   xmlns:inkscape="http://www.inkscape.org/namespaces/inkscape"
   version="1.1"
   width="76"
   height="76"
   viewBox="0 0 76.00 76.00"
   enable-background="new 0 0 76.00 76.00"
   xml:space="preserve"
   id="svg2"
   inkscape:version="0.48.5 r10040"
   sodipodi:docname="macro_down.svg"><metadata
   id="metadata10"><rdf:RDF><cc:Work
       rdf:about=""><dc:format>image/svg+xml</dc:format><dc:type
         rdf:resource="http://purl.org/dc/dcmitype/StillImage" /></cc:Work></rdf:RDF></metadata><defs
   id="defs8" /><sodipodi:namedview
   pagecolor="#ffffff"
   bordercolor="#666666"
   borderopacity="1"
   objecttolerance="10"
   gridtolerance="10"
   guidetolerance="10"
   inkscape:pageopacity="0"
   inkscape:pageshadow="2"
   inkscape:window-width="1103"
   inkscape:window-height="686"
   id="namedview6"
   showgrid="false"
   inkscape:zoom="3.1052632"
   inkscape:cx="38"
   inkscape:cy="38"
   inkscape:window-x="0"
   inkscape:window-y="0"
   inkscape:window-maximized="0"
   inkscape:current-layer="svg2" />
	<path
   d="m 2,24.315867 15.15793,0 0,-15.157867 L 2,9.158 2,24.315867 z m 22.7369,0 49.2631,0 0,-15.157867 -49.2631,0 0,15.157867 z m 0,5.684199 0,15.157867 7.57897,0 0,-1.894922 -5.68423,1.89e-4 0,-11.3684 17.05268,-1.89e-4 0,-1.894545 -18.94742,0 z M 74,45.157933 l 0,-15.157867 -18.94742,-1.89e-4 0,1.894734 17.05268,1.89e-4 0,11.3684 -5.68423,-1.89e-4 0,1.894732 7.57897,1.9e-4 z m -39.78939,-8.052616 0,10.421033 15.15794,15.157867 15.15793,-15.157867 0,-10.421033 -11.36845,11.3684 0,-18.473651 -7.57897,0 0,18.473651 -11.36845,-11.3684 z M 24.7369,66 74,66 l 0,-15.157867 -9.00002,0 -1.89475,1.894733 9.00022,0 0,11.3684 -45.47381,0 0,-11.3684 9.00003,0 -1.89474,-1.894733 -9.00003,0 0,15.157867 z M 2,66 l 15.15793,0 0,-15.157867 L 2,50.842133 2,66 z m 1.89474,-1.894734 0,-11.3684 11.36845,0 0,11.3684 -11.36845,0 z M 2,45.157933 l 15.15793,0 0,-15.157867 -15.15793,0 0,15.157867 z m 13.26319,-1.894733 -11.36845,0 0,-11.3684 11.36845,0 0,11.3684 z"
   id="path4"
   inkscape:connector-curvature="0"
   style="fill:#000000;fill-opacity:1;stroke-width:0.2;stroke-linejoin:round" />
</svg>