<?xml version="1.0" encoding="UTF-8" standalone="no"?>
<svg
   xmlns:dc="http://purl.org/dc/elements/1.1/"
   xmlns:cc="http://creativecommons.org/ns#"
   xmlns:rdf="http://www.w3.org/1999/02/22-rdf-syntax-ns#"
   xmlns:svg="http://www.w3.org/2000/svg"
   xmlns="http://www.w3.org/2000/svg"
   xmlns:sodipodi="http://sodipodi.sourceforge.net/DTD/sodipodi-0.dtd"
   xmlns:inkscape="http://www.inkscape.org/namespaces/inkscape"
   version="1.1"
   width="76"
   height="76"
   viewBox="0 0 76.00 76.00"
   enable-background="new 0 0 76.00 76.00"
   xml:space="preserve"
   id="svg2"
   inkscape:version="0.92.2 (5c3e80d, 2017-08-06)"
   sodipodi:docname="options.svg"><sodipodi:namedview
     pagecolor="#ffffff"
     bordercolor="#666666"
     borderopacity="1"
     objecttolerance="10"
     gridtolerance="10"
     guidetolerance="10"
     inkscape:pageopacity="0"
     inkscape:pageshadow="2"
     inkscape:window-width="1161"
     inkscape:window-height="810"
     id="namedview6"
     showgrid="false"
     inkscape:zoom="3.4824029"
     inkscape:cx="45.381294"
     inkscape:cy="36.359229"
     inkscape:window-x="1879"
     inkscape:window-y="514"
     inkscape:window-maximized="0"
     inkscape:current-layer="svg2"
     showguides="true"
     inkscape:guide-bbox="true"><sodipodi:guide
       position="33.089574,80.854626"
       orientation="1,0"
       id="guide5553"
       inkscape:locked="false" /><sodipodi:guide
       position="43.301028,81.803231"
       orientation="1,0"
       id="guide5555"
       inkscape:locked="false" /><sodipodi:guide
       position="39.395007,62.273128"
       orientation="0,1"
       id="guide5557"
       inkscape:locked="false" /><sodipodi:guide
       position="39.89721,13.559471"
       orientation="0,1"
       id="guide5559"
       inkscape:locked="false" /></sodipodi:namedview><metadata
     id="metadata10"><rdf:RDF><cc:Work
         rdf:about=""><dc:format>image/svg+xml</dc:format><dc:type
           rdf:resource="http://purl.org/dc/dcmitype/StillImage" /><dc:title></dc:title></cc:Work></rdf:RDF></metadata><defs
     id="defs8"><inkscape:path-effect
       effect="skeletal"
       id="path-effect5445"
       is_visible="true"
       pattern="M -1.3939248,3.6565413 10.600932,0.5 11.074413,12.810511 -1.0782706,10.285278 Z"
       copytype="repeated_stretched"
       prop_scale="1"
       scale_y_rel="true"
       spacing="0.5"
       normal_offset="0"
       tang_offset="0"
       prop_units="true"
       vertical_pattern="true"
       fuse_tolerance="0"
       pattern-nodetypes="ccccc" /><inkscape:path-effect
       effect="skeletal"
       id="path-effect5374"
       is_visible="true"
       pattern="M 0,0 H 1"
       copytype="repeated"
       prop_scale="1000000"
       scale_y_rel="false"
       spacing="0"
       normal_offset="0"
       tang_offset="0"
       prop_units="false"
       vertical_pattern="false"
       fuse_tolerance="0" /><inkscape:path-effect
       effect="skeletal"
       id="path-effect5331"
       is_visible="false"
       pattern="M 0,0 H 1"
       copytype="repeated"
       prop_scale="1"
       scale_y_rel="false"
       spacing="0"
       normal_offset="0"
       tang_offset="0"
       prop_units="false"
       vertical_pattern="false"
       fuse_tolerance="0" /></defs><path
     style="fill:#000000;fill-opacity:1;stroke:#000000;stroke-width:1;stroke-linecap:round;stroke-linejoin:miter;stroke-miterlimit:4;stroke-dasharray:none;stroke-opacity:0.99497483;paint-order:markers fill stroke"
     d="M 37.978516 13.5 A 24.5 24.5 0 0 0 13.478516 38 A 24.5 24.5 0 0 0 37.978516 62.5 A 24.5 24.5 0 0 0 62.478516 38 A 24.5 24.5 0 0 0 37.978516 13.5 z M 37.978516 23.5 A 14.5 14.5 0 0 1 52.478516 38 A 14.5 14.5 0 0 1 37.978516 52.5 A 14.5 14.5 0 0 1 23.478516 38 A 14.5 14.5 0 0 1 37.978516 23.5 z "
     id="path5466-3" /><g
     inkscape:groupmode="layer"
     id="layer1"
     inkscape:label="Layer 1"
     style="display:none"><path
       style="fill:#000000;fill-opacity:1;stroke:#000000;stroke-width:0.99999994;stroke-linecap:round;stroke-linejoin:miter;stroke-miterlimit:4;stroke-dasharray:none;stroke-opacity:0.99497483;paint-order:markers fill stroke"
       d="M 33.176211,6.0000002 H 43.301028 L 45,13.726872 V 38 62.440529 L 43.301028,70 H 33.089574 L 31,62.440529 V 37.873715 13.726872 Z"
       id="rect5468-0"
       inkscape:connector-curvature="0"
       sodipodi:nodetypes="ccccccccccc" /><path
       style="fill:#000000;fill-opacity:1;stroke:#000000;stroke-width:0.99999994;stroke-linecap:round;stroke-linejoin:miter;stroke-miterlimit:4;stroke-dasharray:none;stroke-opacity:0.99497483;paint-order:markers fill stroke"
       d="m 57.070795,11.78533 7.159327,7.159327 -4.262369,6.665078 L 42.80406,42.773428 25.521996,60.055492 18.975288,64.199491 11.7547,56.978902 15.622501,50.155997 32.993862,32.784637 50.068258,15.71024 Z"
       id="rect5468-3-8"
       inkscape:connector-curvature="0"
       sodipodi:nodetypes="ccccccccccc" /><path
       style="fill:#000000;fill-opacity:1;stroke:#000000;stroke-width:0.99999994;stroke-linecap:round;stroke-linejoin:miter;stroke-miterlimit:4;stroke-dasharray:none;stroke-opacity:0.99497483;paint-order:markers fill stroke"
       d="M 70.000001,33.176211 V 43.301028 L 62.27313,45 H 38.000002 13.559473 L 5.9999995,43.301028 6.0000005,33.089574 13.559472,31 H 38.126287 62.27313 Z"
       id="rect5468-3-1-3"
       inkscape:connector-curvature="0"
       sodipodi:nodetypes="ccccccccccc" /><path
       style="fill:#000000;fill-opacity:1;stroke:#000000;stroke-width:0.99999994;stroke-linecap:round;stroke-linejoin:miter;stroke-miterlimit:4;stroke-dasharray:none;stroke-opacity:0.99497483;paint-order:markers fill stroke"
       d="M 64.21467,57.070795 57.055343,64.230122 50.390265,59.967753 33.226572,42.80406 15.944508,25.521996 11.800509,18.975288 19.021098,11.7547 l 6.822905,3.867801 17.37136,17.371361 17.074397,17.074396 z"
       id="rect5468-3-5-3"
       inkscape:connector-curvature="0"
       sodipodi:nodetypes="ccccccccccc" /></g><path
     style="display:inline;fill:#000000;fill-opacity:1;stroke:#000000;stroke-width:0.99999994;stroke-linecap:round;stroke-linejoin:miter;stroke-miterlimit:4;stroke-dasharray:none;stroke-opacity:0.99497483;paint-order:markers fill stroke"
     d="M 33.175781 6 L 31 13.726562 L 31 25.320312 A 14.5 14.5 0 0 1 38 23.5 A 14.5 14.5 0 0 1 45 25.304688 L 45 13.726562 L 43.300781 6 L 33.175781 6 z M 45 50.679688 A 14.5 14.5 0 0 1 38 52.5 A 14.5 14.5 0 0 1 31 50.695312 L 31 62.441406 L 33.089844 70 L 43.300781 70 L 45 62.441406 L 45 50.679688 z "
     id="rect5468-0-0" /><path
     style="display:inline;fill:#000000;fill-opacity:1;stroke:#000000;stroke-width:0.99999994;stroke-linecap:round;stroke-linejoin:miter;stroke-miterlimit:4;stroke-dasharray:none;stroke-opacity:0.99497483;paint-order:markers fill stroke"
     d="M 57.070312 11.785156 L 50.068359 15.710938 L 41.763672 24.015625 A 14.5 14.5 0 0 1 51.841797 33.734375 L 59.966797 25.609375 L 64.230469 18.945312 L 57.070312 11.785156 z M 24.005859 41.773438 L 15.623047 50.15625 L 11.753906 56.978516 L 18.974609 64.199219 L 25.521484 60.054688 L 33.722656 51.853516 A 14.5 14.5 0 0 1 24.005859 41.773438 z "
     id="rect5468-3-8-5" /><path
     style="display:inline;fill:#000000;fill-opacity:1;stroke:#000000;stroke-width:0.99999994;stroke-linecap:round;stroke-linejoin:miter;stroke-miterlimit:4;stroke-dasharray:none;stroke-opacity:0.99497483;paint-order:markers fill stroke"
     d="M 13.558594 31 L 6 33.089844 L 6 43.300781 L 13.558594 45 L 25.320312 45 A 14.5 14.5 0 0 1 23.5 38 A 14.5 14.5 0 0 1 25.304688 31 L 13.558594 31 z M 50.679688 31 A 14.5 14.5 0 0 1 52.5 38 A 14.5 14.5 0 0 1 50.695312 45 L 62.273438 45 L 70 43.300781 L 70 33.175781 L 62.273438 31 L 50.679688 31 z "
     id="rect5468-3-1-3-8" /><path
     style="display:inline;fill:#000000;fill-opacity:1;stroke:#000000;stroke-width:0.99999994;stroke-linecap:round;stroke-linejoin:miter;stroke-miterlimit:4;stroke-dasharray:none;stroke-opacity:0.99497483;paint-order:markers fill stroke"
     d="M 19.021484 11.753906 L 11.800781 18.974609 L 15.945312 25.521484 L 24.146484 33.722656 A 14.5 14.5 0 0 1 34.226562 24.005859 L 25.84375 15.623047 L 19.021484 11.753906 z M 51.984375 41.763672 A 14.5 14.5 0 0 1 42.265625 51.841797 L 50.390625 59.966797 L 57.054688 64.230469 L 64.214844 57.070312 L 60.289062 50.068359 L 51.984375 41.763672 z "
     id="rect5468-3-5-3-9" /></svg>