<?xml version="1.0" encoding="UTF-8" standalone="no"?>
<svg
   xmlns:dc="http://purl.org/dc/elements/1.1/"
   xmlns:cc="http://creativecommons.org/ns#"
   xmlns:rdf="http://www.w3.org/1999/02/22-rdf-syntax-ns#"
   xmlns:svg="http://www.w3.org/2000/svg"
   xmlns="http://www.w3.org/2000/svg"
   xmlns:sodipodi="http://sodipodi.sourceforge.net/DTD/sodipodi-0.dtd"
   xmlns:inkscape="http://www.inkscape.org/namespaces/inkscape"
   version="1.1"
   width="76"
   height="76"
   viewBox="0 0 76.00 76.00"
   enable-background="new 0 0 76.00 76.00"
   xml:space="preserve"
   id="svg2"
   inkscape:version="0.48.5 r10040"
   sodipodi:docname="macro_record.svg"><metadata
   id="metadata10"><rdf:RDF><cc:Work
       rdf:about=""><dc:format>image/svg+xml</dc:format><dc:type
         rdf:resource="http://purl.org/dc/dcmitype/StillImage" /></cc:Work></rdf:RDF></metadata><defs
   id="defs8" /><sodipodi:namedview
   pagecolor="#ffffff"
   bordercolor="#666666"
   borderopacity="1"
   objecttolerance="10"
   gridtolerance="10"
   guidetolerance="10"
   inkscape:pageopacity="0"
   inkscape:pageshadow="2"
   inkscape:window-width="982"
   inkscape:window-height="699"
   id="namedview6"
   showgrid="false"
   inkscape:zoom="4.3915053"
   inkscape:cx="29.025258"
   inkscape:cy="21.084496"
   inkscape:window-x="0"
   inkscape:window-y="0"
   inkscape:window-maximized="0"
   inkscape:current-layer="svg2" />
	<path
   d="m 37.999843,25.692236 c 6.797589,0 12.307921,5.510332 12.307921,12.307919 0,6.797277 -5.510332,12.307609 -12.307921,12.307609 -6.797277,0 -12.307607,-5.510332 -12.307607,-12.307609 0,-6.797587 5.51033,-12.307919 12.307607,-12.307919 z m 0,-7.384627 c -10.875768,0 -19.692236,8.816777 -19.692236,19.692546 0,10.875768 8.816468,19.692236 19.692236,19.692236 10.875768,0 19.692548,-8.816468 19.692548,-19.692236 0,-10.875769 -8.81678,-19.692546 -19.692548,-19.692546 z M 37.999843,6 C 55.6732,6 70.000001,20.3268 70.000001,38.000155 70.000001,55.6732 55.6732,70 37.999843,70 20.326798,70 6,55.6732 6,38.000155 6,20.3268 20.326798,6 37.999843,6 z"
   id="path4"
   inkscape:connector-curvature="0"
   style="fill:#000000;fill-opacity:1;stroke-width:0.2;stroke-linejoin:round"
   sodipodi:nodetypes="sssssssssssssss" />
</svg>